# xmcd
#
# Track frame offsets:
#	150
#	16360
#	42307
#	57408
#	77974
#	94088
#	113521
#	136384
#	151436
#	165609
#	179635
#	192267
#
# Disc length: 2713 seconds
#
# Revision: 1
# Processed by: cddbd v1.5.1PL0 Copyright (c) Steve Scherf et al.
# Submitted via: audiograbber 1.83.01
#
DISCID=9e0a970c
DTITLE=Kim Simmonds - Struck By Lightning
DYEAR=2004
DGENRE=Blues
TTITLE0=Struck By Lightning
TTITLE1=Last Train Has Gone
TTITLE2=The Truth Come Out
TTITLE3=Ain't No Free
TTITLE4=Road Tramp Blues
TTITLE5=So Glad You're Mine
TTITLE6=My Home Is A Highway
TTITLE7=Like An Angel
TTITLE8=Don't Know Who To Talk To Anymore
TTITLE9=Living In New York
TTITLE10=Talking 'Bout New Orleans
TTITLE11=Struck By Lightning Reprise
EXTD=
EXTT0=
EXTT1=
EXTT2=
EXTT3=
EXTT4=
EXTT5=
EXTT6=
EXTT7=
EXTT8=
EXTT9=
EXTT10=
EXTT11=
PLAYORDER=
